<?xml version="1.0" encoding="utf-8"?>
<!-- Generator: Adobe Illustrator 22.0.0, SVG Export Plug-In . SVG Version: 6.00 Build 0)  -->
<svg version="1.1" id="Layer_1" xmlns="http://www.w3.org/2000/svg" xmlns:xlink="http://www.w3.org/1999/xlink" x="0px" y="0px"
	 viewBox="0 0 2000 2000" style="enable-background:new 0 0 2000 2000;" xml:space="preserve">
<style type="text/css">
	.st0{fill:#F0EDDA;}
	.st1{display:none;}
	.st2{display:inline;fill:#F0A07E;}
</style>
<g>
	<path class="st0" d="M937.6,1405.4c-142.5,0-285.1-1.4-427.6,0.8c-48,0.7-67.9-14.1-65.1-64.3c3.5-64.8-1.7-130.1,1.6-194.9
		c2.6-50.7-8.2-74.8-65.4-91.5C65.7,963.3,42,620.5,176.7,455.4c62.4-76.6,148.1-117.3,244.9-132.1c36.9-5.6,61.8-18.8,83.5-52
		c129.4-197.9,354.3-252.1,564.7-135c43.6,24.3,76,25.5,121.9,5.5c199.6-86.9,436.5-49.9,572.5,90.9
		c133.6,138.2,167.3,308.6,110,486.3c-57.8,179-181.2,304.9-373.4,341.7c-52.6,10.1-72.3,23.8-68,78.4c5.1,64.6-2.4,130.2,2.3,194.9
		c4,55.2-12.4,74.4-69.9,72.8C1222.7,1402.8,1080.1,1405.4,937.6,1405.4z"/>
	<path class="st0" d="M953.4,1784.4c-147.3,212.6-527,181.8-644.4-77.4c-7.8-17.3-26.6-35.5-11.2-54.9c18.1-22.8,36.8-0.8,52.5,7.2
		c67.6,34.8,135.4,29.3,202.6,1.7c39.1-16.1,76.7-36.1,114.2-55.9c100.1-52.6,197-79.2,280.2,29c84.6-90.8,178.8-92.9,281.4-32.3
		c34.2,20.2,70.8,36.6,106.8,53.7c73.9,35.1,147.9,41.7,222.5,0.8c14.1-7.7,30.4-23.8,47.2-6.6c19.2,19.5,0.2,37.8-7.3,54.3
		C1476.8,1969.8,1094.6,1994.9,953.4,1784.4z"/>
</g>
<g class="st1">
	<path class="st2" d="M1000.9,1207.7c10.3-7.9,20.2-16.4,31-23.6c5.7-3.8,13.4-4.6,19.3,0.2c7.3,5.9,2,12.6-0.7,18.5
		c-7.8,16.8-16.3,33.4-24.2,50.2c-2,4.3-4.8,10.1,0.2,13.5c3.8,2.6,8.2-1.2,11.7-3.6c5.7-3.9,10.4-8.4,12.7-15.5
		c7.7-23.6,25.3-38.7,44.8-52.8c18.7-13.5,38.9-4.1,58.2-5.5c8.6-0.6,4.9,8.7,1.6,14.2c-9.4,15.4-17.6,31.3-22.3,48.8
		c-1.2,4.4-4,10.4,1.7,13.4c5.1,2.7,9.4-1.7,13.1-4.9c11.6-10.1,15.5-25.1,23.3-37.7c7.5-12.1,14.8-24.4,23.2-35.8
		c4-5.4,11.3-8.4,18.2-5c4.4,2.1,1.6,6.5,0.4,9.9c-1.1,1.7-5.2,2.4-3,5c1.6,1.9,4.5,0.7,5.6-2.1c6.2-3.5,12.2-7.6,18.8-10.4
		c12-5.1,21.4-3.6,23.3,11.8c-1.2,2.6-2.4,5.2-0.6,8.1c1.7-1.2,3.5-2.3,5.2-3.5c11.9-8.8,22.7-19.7,38.5-21.5
		c6-0.7,12.6-2.4,16.9,4.3c4,6,0,11-2.7,15.5c-10.2,17.1-21.1,33.7-31.2,50.8c-2.5,4.3-7.6,10.1-1.6,14.8c5.3,4.2,10.7,0.3,15.2-3.1
		c9-6.7,17.3-13.8,21.7-24.8c18.4-45.9,45.5-86.9,72.7-127.7c1.7-2.6,3.5-5.1,5.6-7.4c5-5.5,12.8-9,18.2-5.3
		c7.5,5.1-0.8,10.9-3.5,15.4c-13.8,22.8-28.1,45.3-41.7,67c2.6,5.6,5.9,4.1,8.6,3.8c28.6-2.9,38.4,9.6,27.2,36.2
		c-11.2,26.6-29.8,47.3-55.3,61c-11.6,6.2-24.5,11.3-35.1-2.6c-3-3.9-5.8-3.3-9.4-0.8c-4,2.9-8.3,5.5-12.8,7.5
		c-10.6,4.5-20.9,3.5-29.5-4.4c-8.1-7.5-6.7-17.6-3.1-26.1c5.6-13.3,13.2-25.8,18.3-39.8c-21.4,12.1-35.3,31.4-50.8,49.2
		c-4.9,5.6-9.1,11.9-14.2,17.3c-4.6,5-10.4,3.9-15.2,0.2c-5.2-3.9-0.7-8,1.2-11.4c8.8-15.7,18-31.2,26.8-46.9
		c2.9-5.2,7.8-9.9,5.5-18.1c-14.9,4.3-22.6,16.8-32,26.6c-9.4,9.9-19.8,20.1-25,32.2c-9,21-27.2,21.2-44.2,23.1
		c-15.2,1.6-18.9-11.1-20.6-24.9c-8.5,6.5-15.7,12-23,17.4c-5.6,4.1-13.5,9.5-18.6,6.6c-16.4-9.3-30.6-2-46.2,1.3
		c-16.3,3.5-24.4-8-20.9-25.7c3.2-16.4,14.5-29.7,20.2-50.6c-23.9,22.3-42.9,42.4-59,64.8c-11.6,16.1-27,9.4-40.4,10.4
		c-12.3,0.9-15.5-11.7-15-25.3c-10.2,7.7-17.8,13.7-25.7,19.3c-6.8,4.8-16.4,10.2-22.3,5.2c-13.7-11.6-24.2-3.5-36.2,1.4
		c-12.7,5.2-21-9.7-30.7-9.2c-9.8,0.4-18.4,12-30.9,8.7c-11.8-3.1-12-14-15.4-23.5c-16.6,9.9-28.5,30.6-50.8,21.3
		c-13.1-5.4-10.3-19.7-11.2-33c-13.5,10.6-25.7,20.7-38.5,29.9c-9,6.4-19.4,10.4-28.9,1.4c-9.2-8.7-4.7-18.7,0.5-27.3
		c11.4-19.2,23.6-38,35.3-57.1c3-4.9,8-9.2,7.1-20.9c-16.8,17.2-30.8,31.7-44.9,46c-16.6,16.9-33.2,33.7-49.8,50.5
		c-6,6-12.1,11.2-20.9,4.7c-8.7-6.5-3.5-13.6-0.5-19.9c12.3-25.7,25.1-51.3,37.7-76.8c2.6-2.2,3.9-5.1,1.1-7.4
		c-1.8-1.5-4.4,0-5.1,2.7c-32,37.4-60.2,77.3-83.8,120.5c-4.4,8.1-8,17.6-20.8,10.8c-13.6-7.2-6.2-15.6-1.5-23
		c38.3-59.7,79.5-117.1,129.1-168.2c4.7-4.9,9.7-10.5,15.7-12.8c9.1-3.4,20.9-7,28.2,0.5c6.7,6.9-2.9,14.4-6.4,21
		c-13.9,26-28.5,51.7-44.5,80.5c10.8-0.8,13.8-6.2,17.7-10.2c27.2-27.2,54.3-54.6,81.7-81.7c4.8-4.8,10.5-8.7,16-12.7
		c10.3-7.3,22.9-3.1,29.6,2.2c8.4,6.5-3.6,13.5-7.8,19.2c-29.7,41.3-60.4,82-85.8,126.2c-0.4,1.5-1.6,3.5-1,4.4
		c1.6,2.5,3.7,0.9,5.6-0.3c7.4-6.5,15.3-12.7,22.2-19.7c8.7-8.9,14.5-12.1,13.3,8.4c10.2-11.7,17.3-21.6,26.2-29.6
		c17.6-15.8,35.6-32.4,62.7-21.2c1.8,0.7,4.7-0.6,6.9-1.5c5.1-2.2,10-2.2,13.4,2.5c4,5.4-1.2,9.2-3.4,13.2
		c-8.4,15.2-16.8,30.5-21.3,47.4c-1.3,4.7-4.6,10,1.1,13.4c5.1,3,9.4-1.1,13.1-4.2c3.8-3.2,8.3-6.2,10.6-10.4
		c14.2-25.9,27.9-52.2,42.4-79.5c-4.5-0.3-7.4-0.6-10.4-0.6c-6.5,0-15.8,3.1-17.3-5.4c-1.4-8,7.1-14.7,14.1-14.9
		c20.5-0.4,37.3-5.3,47.8-24.9c2.8-5.2,10.2-5.5,15.1-2.1c6.5,4.6-0.5,8.4-2.1,12.4c-1.1,2.8-2.7,5.3-4.8,9.2
		c5.5,0.6,9.7,0.7,13.8,1.5c6,1.3,10.9,5.5,10.8,11.3c-0.1,6.1-6.7,7.2-11.4,6.6c-26.6-3-38.4,13.7-48.2,34.4
		c-7.7,16.3-16.9,31.8-24.9,47.9c-2.9,5.9-7.6,13.7-0.8,18.6c6.3,4.5,12.6-2.1,18.4-5.5c5.7-3.4,8-8.9,10.2-14.9
		c8.2-21.9,25-36.3,43.1-50.1c18.7-14.2,39.2-4,58.6-6.4c7.8-0.9,6,8.3,2.3,14.3c-9.5,15.4-17.5,31.5-22.6,48.9
		c-1.3,4.5-3.6,10.7,1.4,13.7c4.9,3,9.3-1.7,13.2-4.6c8.9-6.4,13.9-15.6,18.5-25.3c19.2-40.4,41.2-79.4,64-117.9
		c3.2-5.3,6.5-10.7,10.6-15.3c5.4-6.3,13.5-12.8,20.6-6.8c6.6,5.5-2,12.2-5.3,17.5c-18.3,30.3-38.7,59.3-53.8,91.4
		c-1.5,2.5-6.9,4.4-3.1,7.6C996.9,1214.2,999.1,1209.8,1000.9,1207.7z M664.7,1178.9c0.7-1.9,2.5-4.7,1.9-5.6
		c-2.2-3-3.3,0.3-4.6,1.6c-2.3,1.6-4.7,3.4-2.2,6.4C660,1181.6,663,1179.7,664.7,1178.9z M593.4,1206.3c-1.4,1.7-2.8,3.4-4.2,5.1
		c2.9,2.3,5.2,1.4,7.1-1.4c2.4-1.7,5-3.4,2.2-6.5C598.1,1203.1,595.2,1205.3,593.4,1206.3z M1338.8,1266
		c14.1-0.5,49.3-40.9,49.1-56.4c-0.1-8.6-4.9-8.5-11.1-7.6c-19.6,2.9-47.2,38.2-45.6,57.9C1331.6,1264.6,1333.6,1266.5,1338.8,1266z
		 M1069.7,1266.6c26.5-17.7,46.4-37.5,61.3-64.1C1100,1208.3,1073.3,1235.6,1069.7,1266.6z M926.7,1203.3
		c-29,2.2-60.9,34.5-60.5,62.3C891.9,1249.7,911.2,1228.6,926.7,1203.3z M706.8,1266c26.1-16.2,45.4-36.9,60.7-62.7
		C738.3,1206.4,709,1236.3,706.8,1266z M1283.1,1208.1c0.4,0.4,0.9,1.2,1.3,1.2c0.4,0,0.9-0.8,1.3-1.2c-0.7-0.4-1.3-0.8-2-1.2
		C1283.5,1207.2,1283.3,1207.6,1283.1,1208.1z"/>
	<path class="st2" d="M1534.2,1222.4c2.4-0.2,4.8-0.2,7.1-0.7c5.8-1.4,11.6-2,13.6,5.2c1.8,6.5-4,8.3-8.2,10.7
		c-8.1,4.6-16.4,8.8-24.2,13.9c-3.9,2.6-9.1,6.1-6.6,11.9c2.2,5,7.5,5.8,12.7,6c16.3,0.5,27.6-9.6,39.9-17.9
		c4-2.7,7.7-10.8,13.4-5.5c5.1,4.8,2.3,11.5-1.8,16.8c-14,18-48.6,28.7-69.5,21.5c-19.5-6.7-23.7-25.8-7.3-38.2
		c7.6-5.8,9.4-10.1,7-19c-2.9-10.7,3.3-19.3,11.2-26c13.2-11,28.5-17.5,45.6-19.5c6.2-0.7,13-0.9,16.3,5.8c2.6,5.1-0.8,9.7-3.9,13.6
		c-4.5,5.5-11.9,11.4-17.5,7.3C1544.7,1195.8,1542,1214,1534.2,1222.4z M1530.5,1221.1c-0.2,0.4-0.7,0.8-0.6,1.1
		c0.6,1.6,1.4,1.6,2.2,0.1c0.1-0.2-0.2-0.9-0.5-1.1C1531.4,1221,1530.9,1221.1,1530.5,1221.1z"/>
	<path class="st2" d="M1474.2,1211.8c-22.2,18.9-40.5,38.8-56.7,60.6c-5.5,7.4-11.6,12.8-19.9,6.9c-8.4-6-0.1-12.2,2.8-17.4
		c12.5-22.1,25.7-43.8,38.5-65.7c4.2-7.2,9.1-13.3,18.1-14.5c2.9-0.4,5.8-1.9,8.2,1.6c6.2,9.1,6.2,8.7,16.7,3.7
		c5.5-2.6,11.5-4.5,17.5-5.6c4.1-0.7,8.6,0.2,11.2,4.7c4.8,8.3-14.4,44.3-24.2,44.3C1475.4,1230.5,1478.6,1219.8,1474.2,1211.8z"/>
	<path class="st2" d="M1000.9,1207.7c-1.9,2.1-4,6.6-6.4,4.5c-3.8-3.2,1.6-5.2,3.1-7.6C998.8,1205.6,999.8,1206.6,1000.9,1207.7z"/>
	<path class="st2" d="M577.7,1175.8c0.8-2.8,3.3-4.2,5.1-2.7c2.8,2.3,1.5,5.2-1.1,7.4C580.4,1178.9,579,1177.3,577.7,1175.8z"/>
	<path class="st2" d="M1215.7,1194.8c-1.2,2.8-4,4-5.6,2.1c-2.2-2.6,1.9-3.3,3-5C1214,1192.9,1214.8,1193.9,1215.7,1194.8z"/>
	<path class="st2" d="M1262.4,1200.8c-1.7,1.2-3.5,2.3-5.2,3.5c-1.8-2.8-0.6-5.5,0.6-8.1C1259.3,1197.7,1260.9,1199.3,1262.4,1200.8
		z"/>
	<path class="st2" d="M596.3,1210c-1.9,2.9-4.2,3.7-7.1,1.4c1.4-1.7,2.8-3.4,4.2-5.1C594.4,1207.5,595.3,1208.7,596.3,1210z"/>
	<path class="st2" d="M661.9,1174.9c1.4-1.3,2.4-4.6,4.6-1.6c0.7,0.9-1.2,3.7-1.9,5.6C663.8,1177.6,662.8,1176.2,661.9,1174.9z"/>
	<path class="st2" d="M664.7,1178.9c-1.7,0.8-4.7,2.7-5,2.3c-2.4-3-0.1-4.8,2.2-6.4C662.8,1176.2,663.8,1177.6,664.7,1178.9z"/>
	<path class="st2" d="M593.4,1206.3c1.7-1,4.7-3.1,5.1-2.8c2.8,3.1,0.2,4.8-2.2,6.5C595.3,1208.7,594.4,1207.5,593.4,1206.3z"/>
	<path class="st2" d="M1283.1,1208.1c0.2-0.4,0.4-0.9,0.6-1.3c0.7,0.4,1.3,0.8,2,1.2c-0.4,0.4-0.8,1.2-1.3,1.2
		C1284,1209.2,1283.5,1208.5,1283.1,1208.1z"/>
	<path class="st2" d="M649.7,1252.5c-1.8,1.1-4,2.7-5.6,0.3c-0.6-0.9,0.6-2.9,1-4.4C646.6,1249.7,648.1,1251.1,649.7,1252.5z"/>
	<path class="st2" d="M1530.5,1221.1c0.4,0,0.9-0.1,1.1,0.1c0.3,0.2,0.6,0.8,0.5,1.1c-0.7,1.5-1.6,1.5-2.2-0.1
		C1529.9,1221.9,1530.3,1221.5,1530.5,1221.1z"/>
</g>
</svg>
